<svg xmlns="http://www.w3.org/2000/svg" viewBox="0 0 480.48 130.65"><defs><style>.cls-1{fill:#1b1b28;}.cls-2{fill:#ba1b1d;}.cls-3{fill:#851e23;}</style></defs><g id="Layer_2" data-name="Layer 2"><g id="Layer_1-2" data-name="Layer 1"><path class="cls-1" d="M76.68,105.48a40.91,40.91,0,0,1-17.93,17.29q-11.83,6-28.56,6H0V28.87H30.19q25.23,0,38.91,13.25T82.77,78.75Q82.77,94.22,76.68,105.48Zm-15,3.54Q72.71,98.18,72.71,78.75T61.65,48.5Q50.6,37.66,29.48,37.66H10.06v82.2H29.48Q50.6,119.86,61.65,109Z"/><path class="cls-1" d="M111,36.94V74.65h39v7.8H111v38.12h43.23v8.22H100.92V28.87h53.29v8.07Z"/><path class="cls-1" d="M216.86,28.87V104.7q0,11.34-6.73,18.21t-18.5,6.87q-12.9,0-20.13-7.65t-7.23-21.4h9.93q0,9.06,4.1,14.52t12.9,5.47q8.37,0,12-4.62a17.87,17.87,0,0,0,3.61-11.4V28.87Z"/><path class="cls-1" d="M295.38,104.41h-45.5l-9.07,24.38H230.18L267,31.14h11.2l36.85,97.65H304.31Zm-3-7.94L272.7,42.62l-20,53.85Z"/><path class="cls-1" d="M470.55,28.89V89.37c0,10.74-2.24,18.54-6.85,23.5s-11,7.56-19.13,7.56S430,118,425.43,112.87c-3.54-3.78-5.78-9.09-6.61-16.06l-9.1,5.43c1.42,7.32,4.26,13.11,8.51,17.48,6.5,6.73,15.24,10,26.22,10s19.73-3.31,26.22-10,9.81-16.77,9.81-30.35V28.89Zm-52.2,0h-9.92v33l9.92,6Z"/><polygon class="cls-1" points="134.97 0 126.07 14.01 133.51 14.01 141.91 0.39 141.61 0 134.97 0"/><polygon class="cls-1" points="265.81 0 274.71 14.01 267.27 14.01 258.87 0.39 259.18 0 265.81 0"/><path class="cls-2" d="M419.84,72.16,360.92,36.64a12.36,12.36,0,0,0-18.74,10.59v71a12.35,12.35,0,0,0,18.74,10.58l58.92-35.52A12.36,12.36,0,0,0,419.84,72.16Z"/><path class="cls-3" d="M385.46,72,345.22,49.23A12.36,12.36,0,0,0,326.78,60v45.52a12.36,12.36,0,0,0,18.44,10.76L385.46,93.5A12.36,12.36,0,0,0,385.46,72Z"/></g></g></svg>